<svg width="20" height="25" viewBox="0 0 20 25" fill="none" xmlns="http://www.w3.org/2000/svg">
<path fill-rule="evenodd" clip-rule="evenodd" d="M9.02919 13.5055L9.03046 13.8006C9.0406 14.971 9.11115 16.0152 9.23283 16.677C9.23283 16.6889 9.36555 17.3452 9.4501 17.5637C9.58282 17.8795 9.82282 18.1475 10.1237 18.3173C10.3646 18.4385 10.6174 18.5 10.8819 18.5C11.0899 18.4904 11.4328 18.3857 11.6776 18.298L11.881 18.22C13.2282 17.6849 15.8037 15.9362 16.79 14.8668L16.8627 14.7921L17.1873 14.4418C17.3918 14.1738 17.5 13.8461 17.5 13.4936C17.5 13.1778 17.4036 12.862 17.2109 12.6068C17.1532 12.5242 17.0603 12.4181 16.9776 12.3285L16.6617 11.9978C15.5746 10.8964 13.221 9.35153 12.001 8.83964C12.001 8.82862 11.2428 8.51193 10.8819 8.5H10.8337C10.2801 8.5 9.76282 8.81577 9.49828 9.32614C9.42601 9.46567 9.35669 9.73898 9.30396 9.97903L9.20919 10.4323C9.10101 11.1611 9.02919 12.2791 9.02919 13.5055ZM3.75271 12.2347C3.0609 12.2347 2.5 12.8011 2.5 13.4996C2.5 14.1982 3.0609 14.7645 3.75271 14.7645L6.8354 14.4919C7.37812 14.4919 7.81812 14.0486 7.81812 13.4996C7.81812 12.9516 7.37812 12.5073 6.8354 12.5073L3.75271 12.2347Z" fill="white"/>
</svg>
