<svg width="100" height="59" viewBox="0 0 100 59" fill="none" xmlns="http://www.w3.org/2000/svg">
<g clip-path="url(#clip0_120_781)">
<path d="M0 51.3014V43.6389H3.67291V48.5639H3.73011L8.13433 43.6389H12.4221V51.3014H8.76759V46.4826H8.71039L4.28779 51.3014H0Z" fill="white"/>
<path d="M15.0557 51.3014V43.6389H24.8814V45.1249H18.9002V51.3014H15.0557Z" fill="white"/>
<path d="M32.6658 47.0763C34.1857 47.0763 34.821 46.6631 34.821 46.1014C34.821 45.5398 34.1857 45.1249 32.6658 45.1249H30.6864V47.0763H32.6658ZM26.8398 51.3014V43.6389H33.2235C36.6288 43.6389 38.8575 44.2444 38.8575 46.1014C38.8575 47.9584 36.6288 48.5623 33.2235 48.5623H30.6864V51.3014H26.8398Z" fill="white"/>
<path d="M47.3371 44.9645C44.7224 44.9645 44.1831 46.302 44.1831 47.4945C44.1831 48.6296 44.7224 49.9671 47.3371 49.9671C49.9519 49.9671 50.4912 48.6296 50.4912 47.4945C50.4912 46.2953 49.9519 44.9645 47.3371 44.9645ZM40.1445 47.4709C40.1445 44.9409 42.7409 43.4802 47.3371 43.4802C51.9334 43.4802 54.5277 44.9443 54.5277 47.4709C54.5277 49.9975 51.9334 51.4598 47.3371 51.4598C42.7409 51.4598 40.1445 49.9958 40.1445 47.4709Z" fill="white"/>
<path d="M56.6035 51.3014V43.6389H60.4501V46.6749H65.1791V43.6389H69.0256V51.3014H65.1791V48.1591H60.4501V51.3014H56.6035Z" fill="white"/>
<path d="M71.5625 51.3014V43.6389H75.2354V48.5639H75.2926L79.6948 43.6389H83.9826V51.3014H80.3301V46.4826H80.2729L75.8503 51.3014H71.5625Z" fill="white"/>
<path d="M95.059 43.6389H99.6164L94.8282 47.0139L100 51.3014H95.2306L90.6548 47.2264H90.616V51.3014H86.7715V43.6389H90.616V47.0038H90.6548L95.059 43.6389Z" fill="white"/>
<path fill-rule="evenodd" clip-rule="evenodd" d="M41.746 7.76197C44.0687 7.76197 45.9848 6.07531 45.9848 3.92988C45.9848 1.89578 44.0687 0.219238 41.746 0.219238C39.4234 0.219238 37.5052 1.89578 37.5052 3.93157C37.5052 6.08543 39.4132 7.76365 41.746 7.76365V7.76197ZM41.8563 4.0412V0.858481C43.7868 0.858481 45.3822 2.24997 45.3822 4.0412C45.3822 5.72786 43.7868 7.12272 41.8563 7.12272V4.0412ZM77.7949 23.0144L53.4859 19.9784L49.5964 8.34724L45.613 19.9143L45.2535 19.997V8.38434H37.9955V10.2397C38.496 10.4522 38.6247 10.6748 38.7493 11.1083L38.8003 21.4779L32.1266 23.0178L30.043 23.4276L32.3125 23.9083L38.8187 25.3555L38.8739 35.6896C38.3775 36.3474 37.9955 36.8939 37.2519 37.1115V38.5283H46.3709V37.1115C45.8683 36.8939 45.6191 36.565 45.2514 35.9072V26.7925L45.6927 26.8903L49.6393 38.5637L53.6595 26.8161L77.6478 23.9134L81.096 23.4327L77.8051 23.0144H77.7949ZM32.2594 23.4614L38.8085 21.9434V23.4614H32.2594ZM45.803 37.3004V38.0189H42.1934V8.96118H44.6182V35.978C44.99 36.6325 45.3005 37.0879 45.803 37.3071V37.3004ZM45.2535 23.4614V20.4608L45.9991 20.2921L49.4902 23.4631L45.2535 23.4614ZM53.2428 26.4113L49.6822 23.5137L49.6189 23.5676V36.8922L46.1196 26.5159L49.6189 23.4614V9.88378L53.1202 20.5097L49.7374 23.4614H77.5967L53.2428 26.4113ZM49.6189 23.4614L49.6822 23.5137L49.7374 23.4614H49.6189Z" fill="white"/>
<path d="M28.3112 56.81C28.2916 57.0969 28.4081 57.3788 28.636 57.596C28.7418 57.6868 28.8687 57.759 29.0091 57.8084C29.1495 57.8577 29.3006 57.8831 29.4532 57.8831C29.6058 57.8831 29.7568 57.8577 29.8972 57.8084C30.0376 57.759 30.1645 57.6868 30.2703 57.596C30.5006 57.3648 30.616 57.07 30.5931 56.7712C30.5987 56.5692 30.552 56.3685 30.4562 56.1826C30.3702 56.0219 30.2279 55.8862 30.0476 55.7929C29.8692 55.7002 29.662 55.6522 29.4511 55.6546C29.3003 55.6518 29.1503 55.674 29.01 55.7197C28.8696 55.7655 28.7418 55.834 28.634 55.9211C28.4066 56.0977 28.2935 56.3945 28.2949 56.8117L28.3112 56.81ZM27.8536 56.81C27.826 56.4167 27.9867 56.0302 28.301 55.7339C28.4494 55.6051 28.6292 55.5038 28.8285 55.4367C29.0278 55.3695 29.2421 55.338 29.4573 55.3443C29.751 55.3408 30.0401 55.4044 30.2928 55.5281C30.5381 55.6466 30.7351 55.8228 30.8586 56.0341C30.9958 56.265 31.0658 56.5191 31.0629 56.7763C31.0687 57.0364 30.9986 57.2938 30.8586 57.5268C30.7324 57.741 30.529 57.9177 30.2764 58.0328C30.026 58.1458 29.7447 58.2039 29.4593 58.2015C29.1614 58.2057 28.8682 58.1402 28.6136 58.0126C28.3691 57.8899 28.1732 57.7112 28.0498 57.4981C27.9229 57.2833 27.8572 57.0473 27.8577 56.8083L27.8536 56.81Z" fill="white"/>
<path d="M34.0121 57.1811L34.4554 57.2738C34.3846 57.5423 34.2079 57.7838 33.9529 57.9603C33.7002 58.1215 33.3875 58.205 33.0683 58.1964C32.7603 58.2077 32.4549 58.1444 32.1899 58.0143C31.9565 57.8866 31.7761 57.703 31.6731 57.488C31.5542 57.2536 31.4944 57.0017 31.4974 56.7476C31.4916 56.487 31.5616 56.229 31.7017 55.9953C31.8262 55.7883 32.0243 55.6176 32.2696 55.5062C32.52 55.3932 32.8013 55.3351 33.0867 55.3375C33.3887 55.3292 33.6855 55.4039 33.9304 55.5501C34.1655 55.6977 34.3338 55.9061 34.4084 56.1421L33.9712 56.2281C33.9163 56.0563 33.7986 55.9026 33.6342 55.7879C33.4716 55.6928 33.2756 55.6448 33.0765 55.6513C32.8479 55.6443 32.6226 55.6974 32.433 55.8031C32.2616 55.9043 32.1336 56.0478 32.0673 56.2129C31.9216 56.5867 31.9287 56.9897 32.0878 57.3598C32.159 57.5231 32.2951 57.6616 32.4739 57.7528C32.6459 57.8383 32.843 57.8832 33.0438 57.8827C33.2725 57.888 33.4959 57.8252 33.673 57.7056C33.8581 57.5678 33.9812 57.3823 34.0223 57.1794L34.0121 57.1811Z" fill="white"/>
<path d="M35.0137 58.1492V55.3865H35.457V56.5216H37.1953V55.3865H37.6386V58.1492H37.1953V56.8471H35.457V58.1492H35.0137Z" fill="white"/>
<path d="M38.698 56.81C38.6783 57.0969 38.7948 57.3788 39.0228 57.596C39.1285 57.6868 39.2554 57.759 39.3959 57.8083C39.5363 57.8577 39.6873 57.8831 39.8399 57.8831C39.9925 57.8831 40.1435 57.8577 40.2839 57.8083C40.4243 57.759 40.5512 57.6868 40.657 57.596C40.8874 57.3648 41.0027 57.07 40.9798 56.7712C40.9854 56.5692 40.9387 56.3685 40.8429 56.1826C40.7569 56.0219 40.6146 55.8862 40.4343 55.7929C40.2559 55.7002 40.0487 55.6522 39.8378 55.6546C39.687 55.6518 39.537 55.674 39.3967 55.7197C39.2564 55.7655 39.1285 55.834 39.0207 55.9211C38.7946 56.0977 38.6816 56.3945 38.6816 56.8117L38.698 56.81ZM38.2404 56.81C38.2127 56.4167 38.3734 56.0302 38.6877 55.7339C38.8361 55.6051 39.0159 55.5038 39.2152 55.4367C39.4145 55.3695 39.6288 55.338 39.844 55.3443C40.1377 55.3408 40.4268 55.4044 40.6795 55.5281C40.924 55.6474 41.1208 55.8234 41.2453 56.0341C41.3826 56.265 41.4525 56.5191 41.4496 56.7762C41.4554 57.0363 41.3853 57.2938 41.2453 57.5268C41.1191 57.741 40.9157 57.9177 40.6631 58.0328C40.4127 58.1457 40.1314 58.2038 39.846 58.2015C39.5488 58.2058 39.2562 58.1403 39.0023 58.0126C38.7579 57.8899 38.562 57.7112 38.4385 57.4981C38.3116 57.2833 38.2459 57.0473 38.2465 56.8083L38.2404 56.81Z" fill="white"/>
<path d="M42.4364 57.8235H43.2699C43.3703 57.8255 43.4707 57.821 43.5702 57.81C43.6604 57.7986 43.7471 57.7728 43.8255 57.7341C43.8979 57.6967 43.9565 57.6436 43.9951 57.5807C44.0401 57.5088 44.0626 57.4288 44.0604 57.3479C44.0637 57.2524 44.0301 57.1584 43.9644 57.0797C43.9005 57.0029 43.8069 56.9464 43.6989 56.9195C43.5398 56.8844 43.3752 56.869 43.2107 56.874H42.4364V57.8235ZM42.4364 56.5484H43.1596C43.3017 56.553 43.444 56.5417 43.5824 56.5147C43.6831 56.4939 43.7723 56.4458 43.8357 56.3781C43.8953 56.3075 43.9254 56.2228 43.9215 56.1369C43.9237 56.0518 43.896 55.9681 43.8419 55.8957C43.7902 55.8258 43.7085 55.7747 43.6131 55.7523C43.446 55.7192 43.2741 55.7056 43.1024 55.7118H42.4344V56.5552L42.4364 56.5484ZM41.9932 58.1491V55.3863H43.2495C43.4585 55.3802 43.6669 55.4089 43.8623 55.4707C44.0121 55.5239 44.1384 55.614 44.2239 55.7287C44.3095 55.8371 44.3556 55.9636 44.3567 56.093C44.3574 56.2123 44.317 56.3293 44.2402 56.4304C44.1544 56.5404 44.0326 56.6281 43.8889 56.6834C44.073 56.7222 44.2366 56.8099 44.3546 56.933C44.4641 57.0534 44.5216 57.2007 44.518 57.3513C44.5196 57.4764 44.4853 57.6001 44.4179 57.7122C44.3625 57.8132 44.2784 57.9017 44.1728 57.9703C44.0633 58.0356 43.9389 58.0821 43.8071 58.1069C43.6302 58.1399 43.4492 58.1552 43.2679 58.1524L41.9932 58.1491Z" fill="white"/>
<path d="M45.5727 57.0158H46.7064L46.3571 56.25C46.2509 56.0173 46.1712 55.8267 46.1201 55.6766C46.0769 55.8561 46.0168 56.0327 45.9404 56.2045L45.5727 57.0158ZM44.6064 58.1492L45.8913 55.3865H46.3714L47.7401 58.1492H47.2355L46.8453 57.3059H45.446L45.0804 58.1492H44.6064Z" fill="white"/>
<path d="M48.1055 58.1492V55.3865H48.5487V56.5216H50.2871V55.3865H50.7304V58.1492H50.2871V56.8471H48.5487V58.1492H48.1055Z" fill="white"/>
<path d="M53.1913 57.8237H54.0227C54.1238 57.8256 54.2249 57.8211 54.3251 57.8102C54.4153 57.7987 54.502 57.7729 54.5804 57.7343C54.6528 57.6968 54.7114 57.6437 54.75 57.5808C54.795 57.509 54.8175 57.4289 54.8154 57.3481C54.8186 57.2525 54.785 57.1586 54.7193 57.0799C54.6554 57.0031 54.5618 56.9466 54.4538 56.9196C54.294 56.8845 54.1288 56.8692 53.9635 56.8741H53.1913V57.8237ZM53.1913 56.5486H53.9145C54.056 56.5533 54.1976 56.5419 54.3353 56.5148C54.4367 56.4946 54.5268 56.4464 54.5906 56.3782C54.6502 56.3076 54.6803 56.223 54.6764 56.137C54.6786 56.052 54.6509 55.9682 54.5968 55.8958C54.5451 55.826 54.4634 55.7748 54.368 55.7525C54.2014 55.7201 54.0302 55.707 53.8593 55.7137H53.1913V56.5553V56.5486ZM52.748 58.1492V55.3865H54.0023C54.2114 55.3806 54.4197 55.4093 54.6152 55.4708C54.765 55.5241 54.8912 55.6142 54.9767 55.7289C55.0617 55.8374 55.1071 55.9639 55.1075 56.0932C55.1082 56.2125 55.0678 56.3295 54.991 56.4305C54.9062 56.5412 54.7841 56.6291 54.6397 56.6835C54.8244 56.7224 54.9887 56.81 55.1075 56.9331C55.217 57.0536 55.2745 57.2008 55.2709 57.3514C55.2725 57.4766 55.2382 57.6003 55.1708 57.7124C55.1153 57.8134 55.0313 57.9019 54.9257 57.9704C54.8161 58.0358 54.6918 58.0822 54.56 58.1071C54.3824 58.1401 54.2007 58.1554 54.0187 58.1526L52.748 58.1492Z" fill="white"/>
<path d="M58.5639 58.149H58.1553V55.9884C58.0362 56.0778 57.9053 56.1559 57.7651 56.2212C57.6269 56.2876 57.482 56.344 57.332 56.3898V56.0626C57.5545 55.9802 57.761 55.8711 57.9449 55.7388C58.093 55.6351 58.2169 55.5099 58.3105 55.3694H58.5761V58.1423L58.5639 58.149Z" fill="white"/>
<path d="M61.3587 56.2922C61.3708 56.1234 61.3035 55.9572 61.1708 55.8284C61.1148 55.7745 61.0451 55.7315 60.9668 55.7024C60.8884 55.6732 60.8032 55.6587 60.7173 55.6597C60.6264 55.6602 60.5367 55.6771 60.4545 55.7091C60.3723 55.7412 60.2995 55.7876 60.2413 55.8453C60.1019 55.977 60.0288 56.1478 60.037 56.3226C60.0347 56.4019 60.0515 56.4808 60.0866 56.5546C60.1217 56.6285 60.1743 56.6958 60.2413 56.7527C60.3019 56.8067 60.3756 56.8497 60.4576 56.8787C60.5396 56.9078 60.6281 56.9223 60.7173 56.9213C60.8057 56.9229 60.8935 56.9086 60.9746 56.8795C61.0557 56.8504 61.1282 56.8071 61.1871 56.7527C61.3151 56.6246 61.38 56.4614 61.3689 56.2956L61.3587 56.2922ZM59.6775 57.5117L60.0718 57.4813C60.0887 57.6082 60.1562 57.7269 60.2638 57.8186C60.3646 57.8903 60.4945 57.9276 60.6274 57.9232C60.7438 57.9255 60.8586 57.9003 60.9583 57.8507C61.0538 57.8034 61.1343 57.738 61.1932 57.6601C61.2648 57.5596 61.3166 57.4502 61.3464 57.3363C61.3874 57.2006 61.408 57.0612 61.4077 56.9213C61.4077 56.9078 61.4077 56.8842 61.4077 56.8539C61.3219 56.9648 61.2039 57.0562 61.0644 57.1198C60.9249 57.1834 60.7684 57.2172 60.609 57.2182C60.4773 57.2202 60.3466 57.1992 60.2255 57.1565C60.1043 57.1137 59.9956 57.0503 59.9063 56.9702C59.709 56.7916 59.6054 56.5557 59.6183 56.3141C59.6117 56.1909 59.6348 56.0677 59.6864 55.9519C59.7379 55.8361 59.8169 55.7299 59.9186 55.6395C60.014 55.5539 60.1304 55.486 60.26 55.4404C60.3896 55.3947 60.5294 55.3723 60.6703 55.3747C60.8822 55.3728 61.0899 55.4233 61.2668 55.5197C61.45 55.6206 61.5924 55.7645 61.6753 55.933C61.7834 56.182 61.8313 56.4462 61.8163 56.7105C61.828 56.9961 61.781 57.2812 61.6774 57.5538C61.6024 57.7432 61.46 57.9095 61.2688 58.0312C61.0814 58.1436 60.8549 58.2027 60.6233 58.1998C60.507 58.2064 60.3902 58.1939 60.2798 58.163C60.1694 58.1321 60.0675 58.0833 59.9801 58.0196C59.8927 57.9559 59.8215 57.8785 59.7706 57.7919C59.7197 57.7053 59.6901 57.6112 59.6837 57.515L59.6775 57.5117Z" fill="white"/>
<path d="M63.9593 56.292C63.9704 56.1233 63.9032 55.9575 63.7714 55.8282C63.7151 55.7746 63.6454 55.7318 63.5671 55.7027C63.4888 55.6736 63.4038 55.6588 63.3179 55.6595C63.227 55.66 63.1373 55.6769 63.0551 55.7089C62.9729 55.741 62.9001 55.7874 62.8419 55.8451C62.7014 55.9763 62.6281 56.1474 62.6376 56.3224C62.6339 56.4011 62.6491 56.4797 62.6825 56.5535C62.7158 56.6273 62.7665 56.695 62.8317 56.7525C62.8922 56.8067 62.9658 56.8498 63.0478 56.8788C63.1299 56.9079 63.2184 56.9223 63.3077 56.9212C63.3957 56.9225 63.4831 56.9081 63.5638 56.879C63.6446 56.8499 63.7168 56.8067 63.7755 56.7525C63.9051 56.6251 63.9708 56.4616 63.9593 56.2954V56.292ZM62.2781 57.5115L62.6724 57.4811C62.6883 57.6083 62.756 57.7272 62.8644 57.8185C62.9645 57.8898 63.0938 57.9272 63.226 57.923C63.3431 57.9256 63.4586 57.9005 63.5589 57.8505C63.6544 57.8032 63.7349 57.7379 63.7938 57.6599C63.8638 57.5589 63.9148 57.4497 63.945 57.3361C63.9867 57.2004 64.0079 57.0611 64.0083 56.9212C64.0083 56.9077 64.0083 56.8841 64.0083 56.8537C63.9253 56.9633 63.8101 57.0538 63.6733 57.1168C63.5324 57.184 63.3723 57.2189 63.2096 57.218C63.078 57.2197 62.9474 57.1986 62.8263 57.1558C62.7052 57.1131 62.5964 57.0498 62.5069 56.9701C62.3096 56.7914 62.206 56.5555 62.2189 56.314C62.2123 56.1907 62.2354 56.0676 62.287 55.9517C62.3385 55.8359 62.4175 55.7297 62.5192 55.6393C62.616 55.5553 62.7331 55.4891 62.863 55.4449C62.9929 55.4007 63.1325 55.3796 63.2729 55.3829C63.4848 55.3813 63.6925 55.4318 63.8694 55.528C64.0527 55.6288 64.195 55.7728 64.278 55.9412C64.3861 56.1903 64.434 56.4545 64.4189 56.7188C64.4309 57.0045 64.3833 57.2898 64.278 57.5621C64.2031 57.7515 64.0607 57.9179 63.8694 58.0394C63.682 58.1518 63.4555 58.211 63.2239 58.2081C63.1076 58.2147 62.9908 58.2022 62.8804 58.1713C62.77 58.1403 62.6681 58.0916 62.5807 58.0279C62.4933 57.9642 62.4221 57.8868 62.3712 57.8001C62.3203 57.7135 62.2907 57.6194 62.2842 57.5233L62.2781 57.5115Z" fill="white"/>
<path d="M66.9745 57.8237V58.1492H64.7561C64.7537 58.0692 64.7704 57.9896 64.8051 57.9148C64.8682 57.7801 64.9595 57.6557 65.0747 57.5471C65.2391 57.3953 65.4188 57.2553 65.612 57.1288C65.8838 56.9573 66.1311 56.761 66.3495 56.5435C66.4647 56.4279 66.532 56.2849 66.5415 56.1354C66.5425 56.0723 66.5276 56.0097 66.4978 55.9516C66.4679 55.8935 66.4236 55.8412 66.3678 55.7981C66.3068 55.7512 66.2351 55.7149 66.1569 55.6912C66.0787 55.6674 65.9955 55.6567 65.9123 55.6597C65.8251 55.6562 65.7379 55.6675 65.656 55.6927C65.5742 55.7179 65.4994 55.7566 65.4363 55.8065C65.3749 55.8612 65.3274 55.9255 65.2966 55.9956C65.2657 56.0657 65.2521 56.1402 65.2566 56.2147L64.8337 56.1775C64.8449 55.9521 64.9622 55.7391 65.1605 55.5838C65.3746 55.4407 65.6453 55.368 65.9205 55.3798C66.1996 55.3669 66.4735 55.4457 66.6824 55.599C66.7736 55.6685 66.8458 55.7531 66.8944 55.8473C66.943 55.9415 66.9669 56.0431 66.9643 56.1455C66.9633 56.2579 66.9355 56.3691 66.8826 56.4727C66.8135 56.5964 66.7211 56.7102 66.6089 56.81C66.4112 56.9835 66.1996 57.1458 65.9756 57.2958C65.7284 57.4645 65.5671 57.5825 65.5017 57.6433C65.4357 57.699 65.3775 57.7607 65.3281 57.8271L66.9745 57.8237Z" fill="white"/>
<path d="M23.4287 57.0748H26.405V56.6953H23.4287V57.0748Z" fill="white"/>
<path d="M68.6328 57.0748H71.6091V56.6953H68.6328V57.0748Z" fill="white"/>
</g>
<defs>
<clipPath id="clip0_120_781">
<rect width="100" height="59" fill="white"/>
</clipPath>
</defs>
</svg>
